<svg width="275" height="41" viewBox="0 0 275 41" fill="none" xmlns="http://www.w3.org/2000/svg">
<path d="M4.97556 31L1 16L4.97556 1H19.2876L23.2632 16L19.2876 31H4.97556Z" fill="black" stroke="black"/>
<path d="M28.9614 31L26.9737 16L28.9614 1H36.1175L38.1052 16L36.1175 31H28.9614Z" fill="black" stroke="black"/>
<path d="M42.9201 31L41.8158 16L42.9201 1H46.8957L48 16L46.8957 31H42.9201Z" fill="black" stroke="black"/>
<path d="M56.94 26.38V6.22L61.56 1.6H74.16L78.612 6.052V8.74H75.42V7.102L72.732 4.456H62.988L60.132 7.27V25.33L62.988 28.144H72.732L75.42 25.498V23.86H78.612V26.548L74.16 31H61.56L56.94 26.38ZM83.8561 1.012H86.9641V31H83.8561V1.012ZM92.8598 27.556V22.222L96.3038 18.82H107.476V14.83L105.376 12.772H98.2358L96.1358 14.83V16.552H93.0278V13.948L96.8918 10.084H106.678L110.542 13.948V31H107.56V27.304L103.696 31H96.3038L92.8598 27.556ZM103.066 28.312L107.476 24.07V21.508H97.6478L95.9678 23.146V26.674L97.6478 28.312H103.066ZM116.413 5.296V3.448L117.673 2.188H119.521L120.781 3.448V5.296L119.521 6.556H117.673L116.413 5.296ZM117.043 10.084H120.151V31H117.043V10.084ZM126.877 10.084H129.901V13.822L133.639 10.084H139.057V12.856H134.437L129.985 17.308V31H126.877V10.084ZM140.517 10.084H143.709L149.925 27.892H150.093L156.309 10.084H159.501L151.815 31H148.203L140.517 10.084ZM162.468 27.136V13.948L166.332 10.084H177.084L180.948 13.948V27.136L177.084 31H166.332L162.468 27.136ZM175.74 28.228L177.84 26.17V14.914L175.74 12.856H167.676L165.576 14.914V26.17L167.676 28.228H175.74ZM204.439 10.084V36.334L200.575 40.156H190.495L187.261 36.922V34.36H190.369V35.956L191.839 37.384H199.231L201.331 35.326V26.548L196.879 31H190.495L186.631 27.136V10.084H189.739V26.17L191.839 28.228H196.039L201.331 22.936V10.084H204.439ZM210.124 27.556V22.222L213.568 18.82H224.74V14.83L222.64 12.772H215.5L213.4 14.83V16.552H210.292V13.948L214.156 10.084H223.942L227.806 13.948V31H224.824V27.304L220.96 31H213.568L210.124 27.556ZM220.33 28.312L224.74 24.07V21.508H214.912L213.232 23.146V26.674L214.912 28.312H220.33ZM233.886 10.084H236.91V14.536L241.362 10.084H247.788L251.652 13.948V31H248.544V14.914L246.444 12.856H242.202L236.994 18.064V31H233.886V10.084ZM259.237 27.136V12.814H255.457V10.084H259.321V3.28H262.345V10.084H268.897V12.814H262.345V26.17L264.445 28.27H268.897V31H263.101L259.237 27.136Z" fill="black"/>
</svg>
