<svg width="197" height="61" viewBox="0 0 197 61" fill="none" xmlns="http://www.w3.org/2000/svg">
<rect x="3" y="57" width="50" height="3" fill="black"/>
<rect x="52" y="58" width="32" height="3" transform="rotate(-90 52 58)" fill="black"/>
<rect x="3" y="5" width="32" height="3" fill="black"/>
<rect x="1" y="58" width="51" height="3" transform="rotate(-90 1 58)" fill="black"/>
<path d="M72.08 19.6H76.084L81.908 50.384H82.012L90.748 19.6H94.596L103.02 50.384H103.124L108.792 19.6H112.796L105.464 56H101.2L92.724 25.216H92.62L83.676 56H79.412L72.08 19.6ZM116.963 30.104H120.706V34.732L125.335 30.104H132.043V33.536H126.323L120.811 39.048V56H116.963V30.104ZM136.71 24.176V21.888L138.27 20.328H140.558L142.118 21.888V24.176L140.558 25.736H138.27L136.71 24.176ZM137.49 30.104H141.338V56H137.49V30.104ZM152.006 51.216V33.484H147.326V30.104H152.11V21.68H155.854V30.104H163.966V33.484H155.854V50.02L158.454 52.62H163.966V56H156.79L152.006 51.216ZM168.646 51.216V34.888L173.43 30.104H186.482L191.318 34.888V44.196H172.494V50.02L175.094 52.568H184.818L187.418 50.02V48.044H191.266V51.216L186.482 56H173.43L168.646 51.216ZM187.47 40.868V36.084L184.87 33.536H175.094L172.494 36.084V40.868H187.47Z" fill="black"/>
<path d="M51.5 1L17.5 34.5L15.5 44.5L25 43.5L59.5 9" stroke="black" stroke-width="2"/>
<path d="M52.1269 57.1165L55.0281 57.9537L52.9508 60.0215L52.1269 57.1165Z" fill="black"/>
<path d="M3.68563 7.68565L0.782566 6.85512L2.8551 4.78259L3.68563 7.68565Z" fill="black"/>
<path d="M3.92961 56.8778L2.91612 59.9638L0.843593 57.8913L3.92961 56.8778Z" fill="black"/>
<path d="M44 9L52 17" stroke="black" stroke-width="1"/>
<path d="M50 1L59 10" stroke="black" stroke-width="1"/>
</svg>
